<svg xmlns="http://www.w3.org/2000/svg" xmlns:xlink="http://www.w3.org/1999/xlink" width="742" zoomAndPan="magnify" viewBox="0 0 556.5 647.999998" height="864" preserveAspectRatio="xMidYMid meet" version="1.0"><defs><g/><clipPath id="c2e8bb17ea"><path d="M 0 0.296875 L 555.996094 0.296875 L 555.996094 647.515625 L 0 647.515625 Z M 0 0.296875 " clip-rule="nonzero"/></clipPath><clipPath id="18f98eb227"><path d="M 277.996094 647.277344 L -0.00390625 485.53125 L -0.00390625 162.039062 L 277.996094 0.296875 L 555.996094 162.039062 L 555.996094 485.53125 Z M 277.996094 647.277344 " clip-rule="nonzero"/></clipPath><clipPath id="fee7a024ae"><path d="M 0 0.296875 L 555.992188 0.296875 L 555.992188 646.964844 L 0 646.964844 Z M 0 0.296875 " clip-rule="nonzero"/></clipPath><clipPath id="0a3c8c4fcd"><path d="M 277.996094 647.269531 L 0 485.527344 L 0 162.039062 L 277.996094 0.296875 L 555.992188 162.039062 L 555.992188 485.527344 Z M 277.996094 647.269531 " clip-rule="nonzero"/></clipPath><clipPath id="696f8a401c"><path d="M 53.355469 266.503906 L 502.648438 266.503906 L 502.648438 275.277344 L 53.355469 275.277344 Z M 53.355469 266.503906 " clip-rule="nonzero"/></clipPath><clipPath id="ed5c821d97"><path d="M 68.8125 293.25 L 83.789062 293.25 L 83.789062 465.476562 L 68.8125 465.476562 Z M 68.8125 293.25 " clip-rule="nonzero"/></clipPath><clipPath id="5e5bed128a"><path d="M 314.800781 293.25 L 487.03125 293.25 L 487.03125 465.476562 L 314.800781 465.476562 Z M 314.800781 293.25 " clip-rule="nonzero"/></clipPath><clipPath id="a0c6aeef91"><path d="M 53.355469 275.277344 L 502.648438 275.277344 L 502.648438 293.25 L 53.355469 293.25 Z M 53.355469 275.277344 " clip-rule="nonzero"/></clipPath><clipPath id="7ce7946080"><path d="M 69.335938 293.25 L 486.667969 293.25 L 502.648438 275.277344 L 53.355469 275.277344 Z M 69.335938 293.25 " clip-rule="nonzero"/></clipPath><clipPath id="200f9a14a5"><path d="M 327.066406 371.710938 L 342.371094 371.710938 L 342.371094 387.015625 L 327.066406 387.015625 Z M 327.066406 371.710938 " clip-rule="nonzero"/></clipPath><clipPath id="d5b793cc73"><path d="M 334.71875 371.710938 C 330.492188 371.710938 327.066406 375.136719 327.066406 379.363281 C 327.066406 383.589844 330.492188 387.015625 334.71875 387.015625 C 338.945312 387.015625 342.371094 383.589844 342.371094 379.363281 C 342.371094 375.136719 338.945312 371.710938 334.71875 371.710938 Z M 334.71875 371.710938 " clip-rule="nonzero"/></clipPath><clipPath id="05d0a71a0f"><path d="M 68.8125 465.476562 L 83.789062 465.476562 L 83.789062 471.46875 L 68.8125 471.46875 Z M 68.8125 465.476562 " clip-rule="nonzero"/></clipPath><clipPath id="6d422d2aed"><path d="M 314.800781 465.476562 L 329.777344 465.476562 L 329.777344 471.46875 L 314.800781 471.46875 Z M 314.800781 465.476562 " clip-rule="nonzero"/></clipPath><clipPath id="12432a71fa"><path d="M 472.054688 465.476562 L 487.03125 465.476562 L 487.03125 471.46875 L 472.054688 471.46875 Z M 472.054688 465.476562 " clip-rule="nonzero"/></clipPath></defs><g clip-path="url(#c2e8bb17ea)"><g clip-path="url(#18f98eb227)"><path fill="#847158" d="M 555.996094 0.296875 L 555.996094 647.515625 L -0.00390625 647.515625 L -0.00390625 0.296875 Z M 555.996094 0.296875 " fill-opacity="1" fill-rule="nonzero"/></g></g><g clip-path="url(#fee7a024ae)"><g clip-path="url(#0a3c8c4fcd)"><path stroke-linecap="butt" transform="matrix(0, 0.749327, -0.749327, 0, 555.992105, 0.295333)" fill="none" stroke-linejoin="miter" d="M 863.407296 370.994369 L 647.55729 741.988849 L 215.852064 741.988849 L 0.0020573 370.994369 L 215.852064 -0.000109909 L 647.55729 -0.000109909 Z M 863.407296 370.994369 " stroke="#4f3411" stroke-width="56" stroke-opacity="1" stroke-miterlimit="4"/></g></g><g fill="#ffffff" fill-opacity="1"><g transform="translate(60.034475, 246.38538)"><g><path d="M 55.609375 -40.21875 L 47.046875 0 L 33.921875 0 L 28.15625 -30.578125 L 22.390625 0 L 9.40625 0 L 0.609375 -40.21875 L 11.453125 -40.21875 L 16.390625 -7.96875 L 23.0625 -40.21875 L 33.84375 -40.21875 L 39.828125 -7.96875 L 45.296875 -40.21875 Z M 55.609375 -40.21875 "/></g></g></g><g fill="#ffffff" fill-opacity="1"><g transform="translate(116.25915, 246.38538)"><g><path d="M 22.234375 -41.421875 C 28.253906 -41.421875 32.957031 -39.535156 36.34375 -35.765625 C 39.726562 -32.003906 41.421875 -26.785156 41.421875 -20.109375 C 41.421875 -15.859375 40.648438 -12.125 39.109375 -8.90625 C 37.566406 -5.695312 35.34375 -3.207031 32.4375 -1.4375 C 29.53125 0.332031 26.101562 1.21875 22.15625 1.21875 C 16.132812 1.21875 11.414062 -0.664062 8 -4.4375 C 4.59375 -8.207031 2.890625 -13.429688 2.890625 -20.109375 C 2.890625 -24.359375 3.660156 -28.085938 5.203125 -31.296875 C 6.742188 -34.503906 8.96875 -36.992188 11.875 -38.765625 C 14.78125 -40.535156 18.234375 -41.421875 22.234375 -41.421875 Z M 22.234375 -33.390625 C 19.503906 -33.390625 17.46875 -32.3125 16.125 -30.15625 C 14.78125 -28.007812 14.109375 -24.660156 14.109375 -20.109375 C 14.109375 -15.554688 14.78125 -12.203125 16.125 -10.046875 C 17.46875 -7.898438 19.476562 -6.828125 22.15625 -6.828125 C 24.832031 -6.828125 26.84375 -7.898438 28.1875 -10.046875 C 29.53125 -12.203125 30.203125 -15.554688 30.203125 -20.109375 C 30.203125 -24.660156 29.539062 -28.007812 28.21875 -30.15625 C 26.90625 -32.3125 24.910156 -33.390625 22.234375 -33.390625 Z M 22.234375 -33.390625 "/></g></g></g><g fill="#ffffff" fill-opacity="1"><g transform="translate(160.571172, 246.38538)"><g><path d="M 22.234375 -41.421875 C 28.253906 -41.421875 32.957031 -39.535156 36.34375 -35.765625 C 39.726562 -32.003906 41.421875 -26.785156 41.421875 -20.109375 C 41.421875 -15.859375 40.648438 -12.125 39.109375 -8.90625 C 37.566406 -5.695312 35.34375 -3.207031 32.4375 -1.4375 C 29.53125 0.332031 26.101562 1.21875 22.15625 1.21875 C 16.132812 1.21875 11.414062 -0.664062 8 -4.4375 C 4.59375 -8.207031 2.890625 -13.429688 2.890625 -20.109375 C 2.890625 -24.359375 3.660156 -28.085938 5.203125 -31.296875 C 6.742188 -34.503906 8.96875 -36.992188 11.875 -38.765625 C 14.78125 -40.535156 18.234375 -41.421875 22.234375 -41.421875 Z M 22.234375 -33.390625 C 19.503906 -33.390625 17.46875 -32.3125 16.125 -30.15625 C 14.78125 -28.007812 14.109375 -24.660156 14.109375 -20.109375 C 14.109375 -15.554688 14.78125 -12.203125 16.125 -10.046875 C 17.46875 -7.898438 19.476562 -6.828125 22.15625 -6.828125 C 24.832031 -6.828125 26.84375 -7.898438 28.1875 -10.046875 C 29.53125 -12.203125 30.203125 -15.554688 30.203125 -20.109375 C 30.203125 -24.660156 29.539062 -28.007812 28.21875 -30.15625 C 26.90625 -32.3125 24.910156 -33.390625 22.234375 -33.390625 Z M 22.234375 -33.390625 "/></g></g></g><g fill="#ffffff" fill-opacity="1"><g transform="translate(204.883193, 246.38538)"><g><path d="M 40.140625 -56.21875 L 40.140625 0 L 30.65625 0 L 30.046875 -4.9375 C 27.210938 -0.832031 23.367188 1.21875 18.515625 1.21875 C 13.554688 1.21875 9.773438 -0.691406 7.171875 -4.515625 C 4.566406 -8.335938 3.265625 -13.535156 3.265625 -20.109375 C 3.265625 -24.253906 3.929688 -27.929688 5.265625 -31.140625 C 6.609375 -34.359375 8.519531 -36.875 11 -38.6875 C 13.476562 -40.507812 16.335938 -41.421875 19.578125 -41.421875 C 23.316406 -41.421875 26.578125 -40.082031 29.359375 -37.40625 L 29.359375 -57.4375 Z M 21.703125 -6.828125 C 23.265625 -6.828125 24.648438 -7.21875 25.859375 -8 C 27.078125 -8.789062 28.242188 -10.019531 29.359375 -11.6875 L 29.359375 -29.671875 C 28.296875 -30.929688 27.21875 -31.875 26.125 -32.5 C 25.039062 -33.132812 23.796875 -33.453125 22.390625 -33.453125 C 19.910156 -33.453125 17.972656 -32.363281 16.578125 -30.1875 C 15.179688 -28.019531 14.484375 -24.660156 14.484375 -20.109375 C 14.484375 -15.304688 15.101562 -11.890625 16.34375 -9.859375 C 17.582031 -7.835938 19.367188 -6.828125 21.703125 -6.828125 Z M 21.703125 -6.828125 "/></g></g></g><g fill="#ffffff" fill-opacity="1"><g transform="translate(250.33337, 246.38538)"><g><path d="M 39.296875 -21.015625 C 39.296875 -20.515625 39.222656 -19.125 39.078125 -16.84375 L 13.96875 -16.84375 C 14.3125 -13.195312 15.289062 -10.613281 16.90625 -9.09375 C 18.53125 -7.582031 20.734375 -6.828125 23.515625 -6.828125 C 25.234375 -6.828125 26.851562 -7.101562 28.375 -7.65625 C 29.894531 -8.21875 31.539062 -9.101562 33.3125 -10.3125 L 37.78125 -4.25 C 33.28125 -0.601562 28.195312 1.21875 22.53125 1.21875 C 16.207031 1.21875 11.351562 -0.675781 7.96875 -4.46875 C 4.582031 -8.269531 2.890625 -13.40625 2.890625 -19.875 C 2.890625 -23.976562 3.609375 -27.660156 5.046875 -30.921875 C 6.484375 -34.179688 8.582031 -36.742188 11.34375 -38.609375 C 14.101562 -40.484375 17.378906 -41.421875 21.171875 -41.421875 C 26.890625 -41.421875 31.335938 -39.625 34.515625 -36.03125 C 37.703125 -32.445312 39.296875 -27.441406 39.296875 -21.015625 Z M 28.609375 -24.046875 C 28.609375 -30.722656 26.203125 -34.0625 21.390625 -34.0625 C 19.171875 -34.0625 17.441406 -33.238281 16.203125 -31.59375 C 14.960938 -29.957031 14.21875 -27.289062 13.96875 -23.59375 L 28.609375 -23.59375 Z M 28.609375 -24.046875 "/></g></g></g><g fill="#ffffff" fill-opacity="1"><g transform="translate(292.141459, 246.38538)"><g><path d="M 27.765625 -41.421875 C 31.304688 -41.421875 34.0625 -40.347656 36.03125 -38.203125 C 38.007812 -36.054688 39 -33.082031 39 -29.28125 L 39 0 L 28.21875 0 L 28.21875 -27.46875 C 28.21875 -29.644531 27.851562 -31.175781 27.125 -32.0625 C 26.394531 -32.945312 25.296875 -33.390625 23.828125 -33.390625 C 22.304688 -33.390625 20.925781 -32.921875 19.6875 -31.984375 C 18.445312 -31.046875 17.242188 -29.640625 16.078125 -27.765625 L 16.078125 0 L 5.3125 0 L 5.3125 -40.21875 L 14.640625 -40.21875 L 15.484375 -35.125 C 17.148438 -37.195312 18.976562 -38.765625 20.96875 -39.828125 C 22.96875 -40.890625 25.234375 -41.421875 27.765625 -41.421875 Z M 27.765625 -41.421875 "/></g></g></g><g fill="#ffffff" fill-opacity="1"><g transform="translate(336.07411, 246.38538)"><g><path d="M 40.140625 -56.21875 L 40.140625 0 L 30.65625 0 L 30.046875 -4.9375 C 27.210938 -0.832031 23.367188 1.21875 18.515625 1.21875 C 13.554688 1.21875 9.773438 -0.691406 7.171875 -4.515625 C 4.566406 -8.335938 3.265625 -13.535156 3.265625 -20.109375 C 3.265625 -24.253906 3.929688 -27.929688 5.265625 -31.140625 C 6.609375 -34.359375 8.519531 -36.875 11 -38.6875 C 13.476562 -40.507812 16.335938 -41.421875 19.578125 -41.421875 C 23.316406 -41.421875 26.578125 -40.082031 29.359375 -37.40625 L 29.359375 -57.4375 Z M 21.703125 -6.828125 C 23.265625 -6.828125 24.648438 -7.21875 25.859375 -8 C 27.078125 -8.789062 28.242188 -10.019531 29.359375 -11.6875 L 29.359375 -29.671875 C 28.296875 -30.929688 27.21875 -31.875 26.125 -32.5 C 25.039062 -33.132812 23.796875 -33.453125 22.390625 -33.453125 C 19.910156 -33.453125 17.972656 -32.363281 16.578125 -30.1875 C 15.179688 -28.019531 14.484375 -24.660156 14.484375 -20.109375 C 14.484375 -15.304688 15.101562 -11.890625 16.34375 -9.859375 C 17.582031 -7.835938 19.367188 -6.828125 21.703125 -6.828125 Z M 21.703125 -6.828125 "/></g></g></g><g fill="#ffffff" fill-opacity="1"><g transform="translate(381.524287, 246.38538)"><g><path d="M 39.296875 -21.015625 C 39.296875 -20.515625 39.222656 -19.125 39.078125 -16.84375 L 13.96875 -16.84375 C 14.3125 -13.195312 15.289062 -10.613281 16.90625 -9.09375 C 18.53125 -7.582031 20.734375 -6.828125 23.515625 -6.828125 C 25.234375 -6.828125 26.851562 -7.101562 28.375 -7.65625 C 29.894531 -8.21875 31.539062 -9.101562 33.3125 -10.3125 L 37.78125 -4.25 C 33.28125 -0.601562 28.195312 1.21875 22.53125 1.21875 C 16.207031 1.21875 11.351562 -0.675781 7.96875 -4.46875 C 4.582031 -8.269531 2.890625 -13.40625 2.890625 -19.875 C 2.890625 -23.976562 3.609375 -27.660156 5.046875 -30.921875 C 6.484375 -34.179688 8.582031 -36.742188 11.34375 -38.609375 C 14.101562 -40.484375 17.378906 -41.421875 21.171875 -41.421875 C 26.890625 -41.421875 31.335938 -39.625 34.515625 -36.03125 C 37.703125 -32.445312 39.296875 -27.441406 39.296875 -21.015625 Z M 28.609375 -24.046875 C 28.609375 -30.722656 26.203125 -34.0625 21.390625 -34.0625 C 19.171875 -34.0625 17.441406 -33.238281 16.203125 -31.59375 C 14.960938 -29.957031 14.21875 -27.289062 13.96875 -23.59375 L 28.609375 -23.59375 Z M 28.609375 -24.046875 "/></g></g></g><g fill="#ffffff" fill-opacity="1"><g transform="translate(423.332365, 246.38538)"><g><path d="M 18.671875 -41.421875 C 24.328125 -41.421875 29.179688 -39.804688 33.234375 -36.578125 L 29.140625 -30.421875 C 25.742188 -32.546875 22.40625 -33.609375 19.125 -33.609375 C 17.351562 -33.609375 15.984375 -33.28125 15.015625 -32.625 C 14.054688 -31.96875 13.578125 -31.082031 13.578125 -29.96875 C 13.578125 -29.15625 13.789062 -28.472656 14.21875 -27.921875 C 14.65625 -27.367188 15.46875 -26.835938 16.65625 -26.328125 C 17.84375 -25.816406 19.625 -25.207031 22 -24.5 C 26.25 -23.34375 29.410156 -21.789062 31.484375 -19.84375 C 33.554688 -17.894531 34.59375 -15.226562 34.59375 -11.84375 C 34.59375 -9.15625 33.820312 -6.820312 32.28125 -4.84375 C 30.738281 -2.875 28.648438 -1.367188 26.015625 -0.328125 C 23.390625 0.703125 20.457031 1.21875 17.21875 1.21875 C 13.832031 1.21875 10.75 0.703125 7.96875 -0.328125 C 5.1875 -1.367188 2.804688 -2.800781 0.828125 -4.625 L 6.140625 -10.546875 C 9.535156 -7.910156 13.128906 -6.59375 16.921875 -6.59375 C 18.941406 -6.59375 20.546875 -6.984375 21.734375 -7.765625 C 22.921875 -8.554688 23.515625 -9.632812 23.515625 -11 C 23.515625 -12.0625 23.285156 -12.894531 22.828125 -13.5 C 22.378906 -14.113281 21.546875 -14.6875 20.328125 -15.21875 C 19.117188 -15.75 17.222656 -16.367188 14.640625 -17.078125 C 10.597656 -18.179688 7.601562 -19.757812 5.65625 -21.8125 C 3.707031 -23.863281 2.734375 -26.40625 2.734375 -29.4375 C 2.734375 -31.71875 3.390625 -33.765625 4.703125 -35.578125 C 6.015625 -37.398438 7.875 -38.828125 10.28125 -39.859375 C 12.6875 -40.898438 15.484375 -41.421875 18.671875 -41.421875 Z M 18.671875 -41.421875 "/></g></g></g><g fill="#ffffff" fill-opacity="1"><g transform="translate(459.677342, 246.38538)"><g><path d="M 22.078125 -41.421875 C 24.753906 -41.421875 27.164062 -41.03125 29.3125 -40.25 C 31.46875 -39.46875 33.507812 -38.242188 35.4375 -36.578125 L 30.734375 -30.203125 C 29.410156 -31.210938 28.128906 -31.941406 26.890625 -32.390625 C 25.648438 -32.847656 24.300781 -33.078125 22.84375 -33.078125 C 17.125 -33.078125 14.265625 -28.675781 14.265625 -19.875 C 14.265625 -15.425781 15 -12.238281 16.46875 -10.3125 C 17.9375 -8.394531 20.035156 -7.4375 22.765625 -7.4375 C 24.179688 -7.4375 25.46875 -7.648438 26.625 -8.078125 C 27.789062 -8.503906 29.160156 -9.226562 30.734375 -10.25 L 35.4375 -3.484375 C 31.59375 -0.347656 27.191406 1.21875 22.234375 1.21875 C 18.285156 1.21875 14.859375 0.359375 11.953125 -1.359375 C 9.046875 -3.085938 6.804688 -5.53125 5.234375 -8.6875 C 3.671875 -11.851562 2.890625 -15.554688 2.890625 -19.796875 C 2.890625 -24.046875 3.671875 -27.800781 5.234375 -31.0625 C 6.804688 -34.332031 9.046875 -36.875 11.953125 -38.6875 C 14.859375 -40.507812 18.234375 -41.421875 22.078125 -41.421875 Z M 22.078125 -41.421875 "/></g></g></g><g clip-path="url(#696f8a401c)"><path fill="#4f3411" d="M 53.355469 266.503906 L 502.660156 266.503906 L 502.660156 275.277344 L 53.355469 275.277344 Z M 53.355469 266.503906 " fill-opacity="1" fill-rule="nonzero"/></g><g clip-path="url(#ed5c821d97)"><path fill="#4f3411" d="M 68.8125 293.25 L 83.789062 293.25 L 83.789062 465.476562 L 68.8125 465.476562 Z M 68.8125 293.25 " fill-opacity="1" fill-rule="nonzero"/></g><g clip-path="url(#5e5bed128a)"><path fill="#4f3411" d="M 314.800781 293.25 L 487.03125 293.25 L 487.03125 465.476562 L 314.800781 465.476562 Z M 314.800781 293.25 " fill-opacity="1" fill-rule="nonzero"/></g><g clip-path="url(#a0c6aeef91)"><g clip-path="url(#7ce7946080)"><path fill="#ffffff" d="M 53.355469 275.277344 L 502.648438 275.277344 L 502.648438 293.25 L 53.355469 293.25 Z M 53.355469 275.277344 " fill-opacity="1" fill-rule="nonzero"/></g></g><g clip-path="url(#200f9a14a5)"><g clip-path="url(#d5b793cc73)"><path fill="#ffffff" d="M 327.066406 371.710938 L 342.371094 371.710938 L 342.371094 387.015625 L 327.066406 387.015625 Z M 327.066406 371.710938 " fill-opacity="1" fill-rule="nonzero"/></g></g><g clip-path="url(#05d0a71a0f)"><path fill="#ffffff" d="M 68.8125 465.476562 L 83.789062 465.476562 L 83.789062 471.46875 L 68.8125 471.46875 Z M 68.8125 465.476562 " fill-opacity="1" fill-rule="nonzero"/></g><g clip-path="url(#6d422d2aed)"><path fill="#ffffff" d="M 314.800781 465.476562 L 329.777344 465.476562 L 329.777344 471.46875 L 314.800781 471.46875 Z M 314.800781 465.476562 " fill-opacity="1" fill-rule="nonzero"/></g><g clip-path="url(#12432a71fa)"><path fill="#ffffff" d="M 472.054688 465.476562 L 487.03125 465.476562 L 487.03125 471.46875 L 472.054688 471.46875 Z M 472.054688 465.476562 " fill-opacity="1" fill-rule="nonzero"/></g></svg>